<svg xmlns="http://www.w3.org/2000/svg" viewBox="0 0 2048 2048" fill="none">
    <path
        d="M131.14 681.71a399.93 399.93 0 0 0 179 218.82L724 1139.47 924 1024 674 879.66V509.01c0-97.67-35.8-191.6-100-264.43a399.93 399.93 0 0 0-100 264.43v255.18l-63.86-36.87a399.93 399.93 0 0 0-279-45.61zm150 944.39a399.93 399.93 0 0 0 279-45.62L974 1341.54V1110.6l-250 144.34-321-185.33A399.93 399.93 0 0 0 124 1024a399.93 399.93 0 0 0 179 218.82l221 127.59-63.86 36.87a399.93 399.93 0 0 0-179 218.82zM1174 1968.39a399.93 399.93 0 0 0 100-264.43v-477.89l-200-115.47v288.68L753 1584.6a399.93 399.93 0 0 0-179 218.82 399.93 399.93 0 0 0 279-45.61l221-127.6v73.75c0 97.66 35.8 191.59 100 264.43zm742.86-602.1a399.93 399.93 0 0 0-179-218.82L1324 908.53 1124 1024l250 144.34v370.65c0 97.67 35.8 191.6 100 264.43a399.93 399.93 0 0 0 100-264.43v-255.18l63.86 36.87a399.93 399.93 0 0 0 279 45.61zm-150-944.39a399.93 399.93 0 0 0-279 45.62L1074 706.46V937.4l250-144.34 321 185.33a399.93 399.93 0 0 0 279 45.61 399.93 399.93 0 0 0-179-218.82L1524 677.6l63.86-36.87a399.93 399.93 0 0 0 179-218.82zM874 79.61a399.93 399.93 0 0 0-100 264.43v477.89L974 937.4V648.72l321-185.32a399.93 399.93 0 0 0 179-218.82 399.93 399.93 0 0 0-279 45.61L974 417.8v-73.75c0-97.66-35.8-191.59-100-264.43Z" />
    <style>
        path {
            fill: #007c6c;
        }

        @media (prefers-color-scheme: dark) {
            path {

                fill: #21b8a4;
            }
        }
    </style>
</svg>