<?xml version="1.0" standalone="no"?>
<!DOCTYPE svg PUBLIC "-//W3C//DTD SVG 20010904//EN"
 "http://www.w3.org/TR/2001/REC-SVG-20010904/DTD/svg10.dtd">
<svg version="1.0" xmlns="http://www.w3.org/2000/svg"
 width="2048.000000pt" height="2048.000000pt" viewBox="0 0 2048.000000 2048.000000"
 preserveAspectRatio="xMidYMid meet">
<metadata>
Created by potrace 1.14, written by Peter Selinger 2001-2017
</metadata>
<g transform="translate(0.000000,2048.000000) scale(0.100000,-0.100000)"
fill="#000000" stroke="none">
<path d="M8725 19667 c-6 -7 -30 -37 -55 -67 -25 -30 -48 -57 -51 -60 -18 -17
-150 -199 -212 -293 -224 -341 -371 -653 -491 -1039 -41 -132 -107 -409 -121
-503 -3 -23 -8 -52 -10 -65 -3 -14 -8 -50 -11 -80 -3 -30 -7 -68 -10 -85 -2
-16 -7 -66 -11 -110 -4 -44 -8 -1211 -8 -2594 l0 -2513 225 -130 c124 -71 243
-140 265 -153 22 -12 144 -82 270 -155 127 -74 240 -138 252 -144 13 -6 23
-14 23 -18 0 -5 4 -8 9 -8 5 0 49 -23 98 -51 48 -29 108 -63 133 -77 25 -14
169 -97 320 -185 151 -88 295 -171 320 -185 25 -13 49 -28 55 -33 5 -5 13 -9
17 -9 4 0 8 649 8 1443 l0 1443 43 22 c23 12 49 26 57 32 15 10 158 92 220
127 84 47 447 257 470 272 14 8 39 23 55 32 24 13 311 179 640 369 17 9 104
60 195 112 91 52 221 128 290 168 69 40 141 81 160 92 19 11 80 46 135 78 55
32 116 67 135 78 19 11 90 51 157 90 106 62 320 185 518 300 33 19 80 46 105
60 25 13 52 30 60 36 8 6 31 20 50 30 106 58 385 260 527 382 64 55 340 327
394 389 34 39 141 171 187 230 217 281 443 697 567 1042 19 51 30 95 26 97 -4
3 -47 12 -96 20 -143 24 -238 35 -435 52 -79 6 -434 6 -510 -1 -137 -11 -188
-16 -230 -21 -76 -9 -321 -52 -390 -69 -36 -9 -76 -18 -90 -21 -59 -12 -260
-73 -371 -112 -232 -81 -469 -194 -771 -368 -101 -59 -347 -201 -548 -317
-201 -116 -417 -241 -480 -277 -63 -37 -132 -77 -153 -89 -21 -12 -107 -61
-190 -109 -84 -49 -244 -142 -357 -206 -113 -65 -234 -136 -270 -157 -36 -21
-73 -41 -82 -45 -17 -6 -18 19 -19 422 0 236 -2 461 -4 499 -6 102 -14 204
-20 255 -9 66 -27 192 -31 215 -2 11 -8 45 -14 75 -6 30 -13 69 -16 85 -14 76
-79 313 -120 435 -122 367 -297 716 -517 1030 -75 108 -175 238 -204 268 -7 8
-25 29 -39 48 -29 37 -34 39 -49 21z"/>
<path d="M5655 17934 c-271 -334 -491 -705 -630 -1064 -20 -52 -41 -104 -45
-115 -31 -74 -127 -403 -144 -495 -2 -14 -11 -59 -20 -100 -8 -41 -18 -91 -21
-110 -3 -19 -8 -46 -10 -60 -6 -30 -11 -71 -20 -165 -4 -38 -10 -79 -13 -90
-3 -11 -7 -630 -9 -1375 -2 -745 -4 -1392 -6 -1437 l-2 -82 -105 61 c-58 33
-121 69 -140 80 -19 11 -102 60 -185 108 -359 209 -558 308 -810 402 -124 47
-355 116 -475 143 -173 39 -158 36 -305 59 -49 8 -119 18 -155 21 -36 4 -101
11 -145 15 -82 9 -640 6 -685 -3 -14 -3 -52 -8 -85 -12 -93 -9 -306 -44 -320
-53 -10 -5 -4 -31 26 -112 22 -58 43 -114 48 -125 5 -11 22 -49 38 -85 95
-218 249 -497 367 -665 163 -232 282 -373 480 -570 290 -289 497 -443 956
-710 102 -59 201 -117 220 -127 66 -37 505 -291 530 -307 14 -8 39 -22 55 -31
17 -9 91 -51 165 -95 228 -133 702 -406 750 -433 25 -13 50 -28 55 -32 6 -4
33 -20 60 -36 28 -15 64 -35 80 -45 17 -10 55 -32 85 -49 30 -17 70 -39 88
-50 18 -11 124 -73 235 -137 111 -63 258 -148 327 -188 69 -40 141 -82 160
-93 19 -11 107 -61 195 -112 88 -51 246 -142 350 -203 105 -60 215 -123 245
-140 30 -17 73 -41 94 -55 22 -13 58 -34 80 -47 23 -12 81 -45 129 -73 49 -29
94 -52 100 -52 7 0 29 11 49 25 20 14 40 25 43 25 3 0 22 11 43 23 20 13 57
35 82 49 25 14 203 117 395 228 193 111 365 211 383 221 41 24 229 132 497
287 110 64 265 153 345 199 80 46 146 87 147 91 3 7 -23 23 -137 88 -51 30
-365 211 -580 336 -52 30 -261 151 -465 268 -203 117 -387 224 -407 237 -21
12 -40 23 -42 23 -3 0 -26 13 -53 29 -38 24 -457 266 -588 341 -16 9 -72 41
-122 70 l-93 52 -1 1927 c0 1059 -2 1953 -4 1986 -7 103 -15 209 -19 235 -3
14 -7 49 -10 79 -4 30 -9 64 -11 75 -2 12 -7 37 -9 56 -57 404 -246 935 -472
1332 -100 174 -313 481 -405 583 -15 17 -36 40 -47 53 -11 12 -21 22 -24 22
-2 0 -40 -43 -83 -96z"/>
<path d="M16649 16335 c-2 -2 -44 -6 -94 -9 -93 -6 -119 -9 -245 -27 -93 -13
-100 -14 -210 -34 -53 -10 -244 -57 -267 -66 -15 -6 -30 -10 -33 -10 -34 3
-467 -151 -557 -198 -10 -5 -67 -33 -128 -62 -60 -29 -148 -75 -194 -101 -46
-26 -86 -48 -88 -48 -2 0 -21 -11 -42 -25 -22 -13 -115 -68 -208 -121 -92 -53
-186 -108 -208 -120 -22 -13 -76 -44 -120 -69 -44 -25 -87 -50 -95 -55 -42
-26 -222 -130 -226 -130 -2 0 -32 -17 -66 -38 -35 -21 -83 -50 -108 -64 -25
-14 -88 -50 -140 -80 -52 -30 -302 -174 -555 -320 -253 -146 -474 -274 -492
-284 -40 -24 -242 -140 -303 -175 -25 -14 -115 -66 -200 -116 -85 -49 -186
-107 -223 -129 -87 -50 -25 -14 -605 -349 l-502 -290 0 -1152 c0 -634 1 -1153
3 -1153 3 0 126 70 342 195 55 32 159 92 230 133 165 95 829 478 873 504 18
10 102 58 185 107 176 101 605 349 657 379 19 11 75 42 123 71 l88 51 282
-164 c155 -89 311 -180 347 -200 36 -20 72 -41 80 -46 44 -27 152 -90 155 -90
2 0 65 -37 141 -81 77 -45 157 -92 179 -104 22 -12 83 -47 135 -77 52 -31 114
-66 136 -79 39 -23 432 -250 464 -269 20 -12 257 -148 297 -171 17 -10 139
-80 270 -155 608 -351 741 -428 789 -454 62 -35 291 -150 298 -150 3 0 29 -11
58 -24 181 -83 479 -179 714 -230 161 -35 171 -37 424 -71 193 -26 677 -26
865 -1 17 2 55 7 86 10 31 4 65 8 75 10 11 2 39 7 64 10 106 16 142 28 135 45
-4 9 -20 52 -36 96 -16 44 -33 89 -38 100 -6 11 -29 65 -52 120 -207 484 -564
981 -972 1352 -185 169 -461 369 -702 510 -208 121 -638 370 -685 396 -25 14
-85 48 -135 77 -49 29 -106 62 -125 72 -19 11 -219 127 -445 258 -225 130
-430 248 -455 262 -60 34 -344 199 -347 202 -2 1 40 27 93 57 53 30 117 66
143 80 75 43 275 159 291 169 8 5 49 28 90 52 101 57 288 179 380 247 41 31
80 59 85 63 25 19 212 175 231 193 264 252 386 388 539 598 41 56 78 107 83
112 13 16 134 212 179 290 78 134 219 429 239 500 2 6 18 51 37 100 25 63 32
92 24 96 -7 4 -61 14 -122 24 -60 10 -118 19 -128 21 -10 2 -53 6 -95 10 -42
3 -86 8 -97 11 -24 6 -561 14 -566 8z"/>
<path d="M13140 11338 c-136 -81 -867 -504 -963 -557 -16 -9 -36 -20 -45 -26
-9 -5 -75 -44 -147 -85 -71 -41 -137 -79 -146 -85 -9 -5 -40 -23 -70 -40 -30
-16 -62 -34 -71 -40 -10 -5 -114 -66 -233 -134 -118 -69 -215 -128 -215 -131
0 -5 386 -231 700 -410 8 -5 80 -47 160 -93 312 -181 678 -391 730 -420 30
-17 79 -45 108 -64 29 -18 55 -33 57 -33 3 0 82 -45 175 -100 94 -55 173 -100
177 -100 4 0 14 -6 22 -14 9 -7 41 -27 71 -43 30 -17 108 -61 173 -98 l117
-67 1 -1932 c1 -1062 3 -1949 4 -1971 5 -84 17 -236 20 -258 2 -12 6 -44 10
-72 9 -75 25 -178 29 -184 2 -3 7 -27 10 -53 4 -26 26 -125 51 -220 152 -600
426 -1129 837 -1618 l36 -44 40 44 c107 121 314 408 397 551 27 49 145 262
145 265 0 1 23 50 50 108 28 58 50 109 50 111 0 3 9 24 19 48 86 188 219 651
246 857 3 25 10 70 15 100 5 30 12 87 16 125 3 39 9 79 12 90 3 11 7 634 9
1385 2 751 4 1397 6 1437 l2 72 355 -205 c555 -322 790 -429 1200 -548 68 -20
309 -76 350 -81 8 -2 46 -8 83 -14 37 -6 89 -14 115 -17 26 -3 60 -7 77 -10
169 -22 533 -32 695 -19 188 15 183 15 295 31 28 4 61 8 75 10 14 2 41 6 60 9
19 4 46 9 60 11 63 11 62 8 29 97 -137 373 -333 734 -572 1052 -217 287 -526
593 -817 807 -132 97 -250 172 -475 303 -121 70 -263 153 -315 183 -52 30
-115 66 -140 80 -25 14 -142 82 -260 150 -118 69 -235 136 -260 150 -25 13
-65 36 -90 51 -44 28 -143 85 -900 520 -212 122 -392 225 -400 230 -75 47
-171 101 -180 101 -5 0 -10 5 -10 10 0 6 -4 10 -10 10 -5 0 -74 38 -154 85
-80 47 -161 92 -180 102 -20 9 -36 20 -36 25 0 4 -4 8 -9 8 -7 0 -163 88 -501
284 -69 40 -147 86 -175 101 -77 44 -148 85 -165 95 -108 67 -240 140 -251
139 -8 0 -52 -23 -99 -51z"/>
<path d="M1818 10315 c-2 -1 -47 -5 -100 -9 -53 -3 -102 -8 -110 -10 -7 -3
-40 -7 -73 -10 -33 -3 -73 -8 -90 -11 -16 -2 -43 -6 -60 -9 -141 -20 -145 -22
-135 -56 36 -125 251 -597 309 -679 12 -16 21 -32 21 -35 0 -8 60 -103 149
-235 228 -340 549 -678 886 -932 119 -90 285 -202 360 -245 11 -6 36 -20 55
-32 19 -11 46 -27 60 -35 69 -38 959 -551 1005 -579 22 -14 72 -43 110 -65 39
-22 129 -74 200 -115 135 -78 308 -178 360 -208 28 -16 300 -173 422 -244 l52
-30 -57 -33 c-31 -18 -64 -37 -72 -42 -8 -5 -111 -65 -229 -133 -220 -127
-232 -134 -316 -183 -213 -124 -502 -338 -673 -500 -74 -69 -241 -240 -288
-295 -22 -24 -47 -54 -57 -65 -46 -52 -182 -231 -249 -330 -186 -273 -341
-574 -453 -882 l-34 -93 22 -5 c51 -12 206 -36 262 -41 33 -3 66 -7 73 -9 54
-19 559 -27 742 -13 102 8 141 13 300 34 159 22 453 93 653 158 335 110 519
203 1326 670 348 201 637 366 642 366 5 0 9 5 9 10 0 6 4 10 9 10 5 0 118 63
252 141 134 78 264 153 289 167 25 14 171 98 325 187 154 89 514 297 800 462
286 165 565 326 620 358 55 32 186 107 290 168 105 60 210 121 235 135 25 14
53 30 63 36 16 10 17 76 17 1163 0 634 -2 1153 -5 1153 -3 0 -47 -25 -97 -55
-50 -30 -92 -55 -94 -55 -2 0 -27 -14 -56 -31 -63 -38 -107 -63 -168 -97 -25
-13 -49 -28 -55 -32 -5 -4 -28 -18 -50 -30 -22 -12 -143 -82 -270 -155 -126
-73 -246 -142 -266 -153 -20 -11 -47 -26 -60 -34 -13 -7 -31 -18 -39 -24 -8
-6 -40 -25 -70 -42 -30 -16 -154 -87 -275 -157 -121 -70 -239 -138 -262 -151
-23 -13 -140 -81 -260 -151 -120 -69 -234 -135 -253 -146 -19 -10 -76 -43
-127 -73 l-92 -54 -51 30 c-28 16 -53 30 -56 30 -3 0 -25 14 -49 30 -24 17
-46 30 -48 30 -3 0 -50 27 -105 59 -55 32 -124 72 -154 89 -29 16 -152 87
-273 157 -121 70 -237 137 -258 149 -21 11 -46 26 -55 31 -105 63 -144 85
-147 85 -3 0 -33 17 -67 38 -35 21 -70 41 -78 45 -8 4 -76 43 -150 87 -74 44
-187 110 -250 146 -63 36 -130 74 -149 85 -82 48 -387 224 -463 267 -94 54
-481 278 -530 308 -31 19 -59 34 -62 34 -4 0 -30 15 -59 33 -53 34 -107 65
-207 120 -30 16 -59 33 -65 37 -12 10 -227 116 -310 155 -229 105 -658 240
-860 271 -22 3 -58 9 -80 14 -22 5 -65 12 -95 15 -30 3 -62 8 -70 10 -8 2 -49
7 -90 10 -41 4 -88 9 -105 12 -33 5 -532 13 -537 8z"/>
<path d="M10740 7928 l-1 -1443 -486 -280 c-267 -154 -507 -292 -532 -306 -25
-15 -102 -59 -171 -99 -69 -40 -145 -84 -170 -98 -25 -14 -152 -88 -282 -164
-131 -76 -240 -138 -243 -138 -3 0 -34 -17 -68 -39 -52 -32 -302 -178 -427
-248 -19 -11 -96 -55 -170 -98 -74 -43 -173 -100 -220 -127 -47 -26 -92 -53
-100 -58 -14 -9 -111 -64 -175 -100 -290 -164 -513 -313 -714 -478 -101 -83
-373 -346 -456 -442 -273 -313 -503 -679 -669 -1062 -64 -146 -117 -296 -108
-302 9 -5 154 -30 242 -42 96 -12 103 -13 185 -19 44 -4 91 -8 105 -11 34 -6
409 -6 495 1 125 9 199 16 225 20 14 2 48 6 75 10 70 8 95 13 220 36 260 50
531 132 784 238 221 93 301 136 946 508 72 42 146 85 165 95 74 43 360 208
480 278 69 40 134 78 145 84 39 22 360 207 375 216 15 10 120 70 388 224 84
49 155 87 157 85 1 -2 5 -238 8 -524 5 -514 9 -587 46 -825 89 -562 293 -1090
610 -1575 65 -100 212 -299 269 -365 81 -93 70 -86 90 -64 102 110 297 379
406 559 68 113 207 382 243 470 7 17 21 51 33 77 96 218 211 626 246 868 2 19
6 46 9 59 12 69 21 140 32 276 5 50 8 1217 8 2593 l0 2504 -440 254 c-242 139
-447 258 -455 263 -9 4 -114 65 -233 135 -120 69 -237 137 -260 150 -23 13
-98 56 -167 96 -69 40 -143 83 -165 95 -22 12 -75 43 -118 69 -43 25 -81 46
-85 46 -4 0 -18 9 -32 20 -14 11 -28 20 -32 20 -5 0 -8 -649 -8 -1442z"/>
</g>
</svg>
