<svg xmlns="http://www.w3.org/2000/svg" width="1024" height="512">
   <path
      d="M458.424 235.44a23.998 24.021 0 0 0 10.74 13.144L494 262.936 506 256l-15-8.67v-22.262a24.034 24.034 0 0 0-6.001-15.883 23.998 24.021 0 0 0-6 15.883v15.327l-3.833-2.215a23.998 24.021 0 0 0-16.741-2.74zm9 56.724a23.998 24.021 0 0 0 16.742-2.74L509 275.073V261.2l-15.001 8.67-19.262-11.131a23.998 24.021 0 0 0-16.742-2.74 23.998 24.021 0 0 0 10.741 13.143l13.261 7.664-3.831 2.214a23.998 24.021 0 0 0-10.741 13.143zm53.577 20.56a23.998 24.021 0 0 0 6-15.883v-28.704l-12-6.936v17.34l-19.262 11.13a23.998 24.021 0 0 0-10.741 13.144 23.998 24.021 0 0 0 16.741-2.74L515 292.411v4.43a24.036 24.036 0 0 0 6 15.882zm44.575-36.165a23.998 24.021 0 0 0-10.74-13.143l-24.834-14.352L518 256l15 8.67v22.262a24.034 24.034 0 0 0 6.001 15.883 23.998 24.021 0 0 0 6.001-15.883v-15.327l3.832 2.215a23.998 24.021 0 0 0 16.741 2.74zm-9-56.723a23.998 24.021 0 0 0-16.742 2.74L515 236.927V250.8l15.002-8.67 19.261 11.131a23.998 24.021 0 0 0 16.742 2.74 23.998 24.021 0 0 0-10.741-13.143l-13.261-7.663 3.832-2.214a23.998 24.021 0 0 0 10.74-13.144zm-53.577-20.56a23.998 24.021 0 0 0-6 15.883v28.704l12 6.936v-17.34l19.262-11.13a23.998 24.021 0 0 0 10.741-13.144 23.998 24.021 0 0 0-16.741 2.74L509 219.59v-4.43a24.037 24.037 0 0 0-6-15.883z"
      style="fill:#009069;fill-opacity:1" />
</svg>